<?xml version="1.0" encoding="UTF-8" standalone="no"?>
<!DOCTYPE svg PUBLIC "-//W3C//DTD SVG 20010904//EN"
              "http://www.w3.org/TR/2001/REC-SVG-20010904/DTD/svg10.dtd">

<svg xmlns="http://www.w3.org/2000/svg"
     width="1.75in" height="1.51389in"
     viewBox="0 0 126 109">
  <path id="Selection"
        fill="#ffffff" stroke="#ffffff" stroke-width="2"
        d="M 62.00,7.44
           C 52.62,9.25 44.89,13.50 39.95,22.00
             39.95,22.00 35.16,32.73 35.16,32.73
             32.43,36.27 26.81,36.43 20.21,44.01
             9.40,56.43 11.28,74.88 23.01,85.91
             32.57,94.88 41.95,94.00 54.00,94.00
             54.00,94.00 83.00,94.00 83.00,94.00
             100.98,93.97 116.53,84.57 116.99,65.00
             117.11,59.70 116.73,55.91 114.48,51.00
             112.35,46.34 108.14,41.62 104.00,38.63
             101.76,37.02 98.53,35.80 96.93,33.61
             95.05,31.04 95.50,27.43 91.53,21.00
             85.39,11.05 73.44,6.00 62.00,7.44 Z
           M 89.00,34.00
           C 89.00,34.00 80.00,37.14 80.00,37.14
             75.35,39.40 71.32,43.52 67.00,46.56
             67.00,46.56 57.00,52.80 57.00,52.80
             54.89,54.07 47.09,57.99 49.88,61.36
             52.20,64.17 58.88,59.30 63.00,58.00
             61.97,63.77 62.20,69.86 59.01,75.00
             57.49,77.44 55.25,79.84 53.00,81.61
             40.37,91.54 24.83,83.49 20.93,69.00
             18.39,59.59 22.89,49.29 31.00,44.13
             35.28,41.41 38.10,41.11 43.00,41.00
             43.06,34.79 43.70,29.16 47.56,24.00
             56.02,12.69 72.61,11.00 82.67,21.30
             86.47,25.19 87.51,29.02 89.00,34.00 Z
           M 59.00,87.00
           C 67.12,74.83 68.77,74.15 70.00,59.00
             72.35,61.96 76.66,72.41 80.36,69.26
             82.39,67.54 80.63,63.91 79.84,62.00
             77.44,56.13 72.64,50.66 79.06,45.64
             93.69,34.19 110.91,48.68 109.91,65.00
             108.29,91.38 77.22,87.00 59.00,87.00 Z" />
</svg>